HIERARCHY
ROOT pelvis
{
  OFFSET 0 100 0
  CHANNELS 6 Xposition Yposition Zposition Zrotation Xrotation Yrotation
  JOINT pelvis_right_femur
  {
    OFFSET -10.78128 -3.44521 -0.5502486
    CHANNELS 3 Zrotation Xrotation Yrotation
    JOINT right_femur_tibia
    {
      OFFSET -0.8047443 -44.0398 -0.1307829
      CHANNELS 3 Zrotation Xrotation Yrotation
      JOINT right_tibia_foot
      {
        OFFSET 3.006224 -47.83518 -5
        CHANNELS 3 Zrotation Xrotation Yrotation
        End Site
        {
          OFFSET 0 -5 15
        }
      }
    }
  }
  JOINT pelvis_left_femur
  {
    OFFSET 10.78128 -3.44521 -0.5502486
    CHANNELS 3 Zrotation Xrotation Yrotation
    JOINT left_femur_tibia
    {
      OFFSET 0.8047443 -44.0398 -0.1307829
      CHANNELS 3 Zrotation Xrotation Yrotation
      JOINT left_tibia_foot
      {
        OFFSET -4.370144 -48.10324 -4.275266
        CHANNELS 3 Zrotation Xrotation Yrotation
        End Site
        {
          OFFSET 0 -5 15
        }
      }
    }
  }
  JOINT pelvis_spine1
  {
    OFFSET 0 6.468898 -3.129235
    CHANNELS 3 Zrotation Xrotation Yrotation
    JOINT spine1
    {
      OFFSET 0 23.15396 4.99043
      CHANNELS 3 Zrotation Xrotation Yrotation
      JOINT spine2
      {
        OFFSET 0 20.79997 -5.064912
        CHANNELS 3 Zrotation Xrotation Yrotation
        JOINT neck
        {
          OFFSET 0 14.38658 9.616178
          CHANNELS 3 Zrotation Xrotation Yrotation
          End Site
          {
            OFFSET 0 20 0
          }
        }
      }
      JOINT right_manubrium
      {
        OFFSET -5.722621 16.35077 3.967754
        CHANNELS 3 Zrotation Xrotation Yrotation
        JOINT right_clavicle
        {
          OFFSET -13.16364 1.694482 -4.693211
          CHANNELS 3 Zrotation Xrotation Yrotation
          JOINT right_humerus
          {
            OFFSET -28.5034 -0.3100689 -2.792744
            CHANNELS 3 Zrotation Xrotation Yrotation
            JOINT right_radius
            {
              OFFSET -25.15693 0.02248979 -1.271978
              CHANNELS 3 Zrotation Xrotation Yrotation
              End Site
              {
                OFFSET -15 0 0
              }
            }
          }
        }
      }
      JOINT left_manubrium
      {
        OFFSET 5.722621 16.35077 3.967754
        CHANNELS 3 Zrotation Xrotation Yrotation
        JOINT left_clavicle
        {
          OFFSET 13.16364 1.694482 -4.693211
          CHANNELS 3 Zrotation Xrotation Yrotation
          JOINT left_humerus
          {
            OFFSET 29.39168 -1.063119 -2.237045
            CHANNELS 3 Zrotation Xrotation Yrotation
            JOINT left_radius
            {
              OFFSET 24.59957 -0.9528479 0.9047498
              CHANNELS 3 Zrotation Xrotation Yrotation
              End Site
              {
                OFFSET 15 -0 -0
              }
            }
          }
        }
      }
    }
  }
}
MOTION
Frames: 17
Frame Time: 0.0416666666667
-597.0213 107.0454 2662.898 -3.598778 -4.950003 -33.48198 6.719201 -1.187352 -0.07830637 -0 9.147297 -0 -13.12948 -2.408988 -0.5194091 -0.5315684 -12.01143 -4.478657 -0 60.1987 -0 -0.2146229 -2.679925 11.90127 0.6546613 -3.949094 8.292766 1.454521 15.35437 -6.908146 0.6926126 19.63432 1.345186 0.1103725 -17.52905 3.295644 -1.045438 -32.45919 13.59078 87.20094 18.76863 -9.442108 -0 0 28.95509 -21.82077 15.75057 12.5734 1.824885 -22.67251 -7.593791 -94.9369 9.99339 37.64796 0 0 -5.67931 7.271266 15.17828 1.479906
-599.6921 107.5392 2667.055 -3.233972 -4.99828 -34.04915 6.325233 3.266565 -0.2061528 -0 7.306649 -0 -12.90256 -5.035042 -0.3891577 0.8358167 -17.45433 -3.391778 -0 52.04144 -0 0.2768879 -2.822441 12.68945 0.6560706 -3.950579 8.291444 1.454476 15.35562 -6.908402 0.6954055 19.63378 1.341423 0.104624 -17.53446 3.298897 -1.05083 -32.46442 13.5896 87.20466 18.76149 -9.438476 -0 0 28.95937 -21.82604 15.75704 12.58083 1.823553 -22.66807 -7.590264 -94.93666 9.999953 37.64755 0 0 -5.680685 7.265628 15.18131 1.483919
-602.2694 107.3403 2671.226 -3.038382 -4.525598 -34.4395 6.321029 6.8009 -0.09282075 -0 6.33628 -0 -12.15003 -7.884014 -0.3025338 2.606242 -21.55389 -2.168388 -0 40.31384 -0 0.7150331 -2.760456 13.37689 0.6575401 -3.951629 8.290173 1.454172 15.35743 -6.908594 0.6979588 19.63377 1.338496 0.1001577 -17.53939 3.301825 -1.055801 -32.46763 13.5886 87.20923 18.75508 -9.437094 -0 0 28.96112 -21.83068 15.76222 12.5862 1.822459 -22.66505 -7.587941 -94.9363 10.00557 37.64557 0 0 -5.68224 7.261689 15.18415 1.486438
-604.7829 106.5199 2675.595 -3.137935 -3.795766 -34.76351 6.539899 9.547105 0.2143958 -0 6.643588 -0 -11.08226 -11.03494 -0.3586266 4.306148 -23.92113 -1.161332 -0 27.77856 -0 1.021074 -2.375202 14.00229 0.6590035 -3.952204 8.289011 1.453628 15.35969 -6.908712 0.7001566 19.63427 1.336532 0.09717 -17.54362 3.304291 -1.060108 -32.4687 13.58781 87.2144 18.74968 -9.437996 -0 0 28.9603 -21.83448 15.76591 12.58929 1.821654 -22.6636 -7.586918 -94.93583 10.01 37.64215 0 0 -5.6839 7.259602 15.18668 1.487385
-607.2856 105.3285 2680.3 -3.475908 -3.176164 -35.14853 6.629759 11.80003 0.4967059 -0 8.34268 -0 -10.10753 -14.11706 -0.4940707 5.282375 -24.54731 -0.8113538 -0 17.38366 -0 1.158208 -1.879835 14.67005 0.6604027 -3.952264 8.28801 1.452856 15.36234 -6.908749 0.7018957 19.63528 1.335651 0.09584451 -17.54693 3.306175 -1.063543 -32.4675 13.58729 87.21999 18.74553 -9.441243 -0 0 28.95682 -21.83727 15.76791 12.58989 1.821186 -22.66383 -7.587294 -94.93527 10.01301 37.63737 0 0 -5.685605 7.259527 15.18878 1.486665
-609.8544 104.1024 2685.424 -3.84953 -2.964134 -35.67458 6.217847 13.88576 0.5062822 -0 11.25839 -0 -9.598764 -16.22764 -0.4920331 5.075683 -23.82419 -1.451059 -0 11.0044 -0 1.017795 -1.630128 15.47159 0.6616857 -3.951766 8.287218 1.451862 15.36533 -6.908698 0.7030807 19.63681 1.335967 0.09636018 -17.54914 3.307365 -1.065916 -32.46387 13.58709 87.22584 18.74288 -9.446916 -0 0 28.9506 -21.83886 15.76801 12.58777 1.821096 -22.66588 -7.589169 -94.93463 10.01437 37.63127 0 0 -5.687304 7.261629 15.19035 1.484166
-612.5633 103.1322 2690.982 -4.045869 -3.296212 -36.31923 5.088364 16.02477 0.1614945 -0 15.07598 -0 -9.666988 -16.25326 -0.1022964 3.651623 -22.32359 -3.16442 -0 8.82833 -0 0.4530261 -1.891173 16.43458 0.6628007 -3.95069 8.286678 1.450666 15.36856 -6.908551 0.7036288 19.63882 1.33756 0.09884095 -17.55007 3.307764 -1.067049 -32.45777 13.58722 87.23174 18.74193 -9.454988 -0 0 28.94165 -21.83911 15.7661 12.58282 1.821423 -22.66981 -7.592591 -94.93394 10.01393 37.62399 0 0 -5.688935 7.265987 15.1913 1.479866
-615.451 102.5784 2696.912 -3.978625 -4.154055 -36.95305 3.289787 18.18649 -0.3705326 -0 19.60246 -0 -10.16876 -13.42517 0.7994641 1.358902 -20.47861 -5.761803 -0 9.714143 -0 -0.5582773 -2.7001 17.50793 0.6636894 -3.949071 8.286426 1.449313 15.37191 -6.908304 0.703484 19.64124 1.340415 0.103266 -17.54959 3.30731 -1.066791 -32.44938 13.5877 87.23735 18.74276 -9.465147 -0 0 28.93031 -21.838 15.76222 12.57521 1.822182 -22.67553 -7.597462 -94.93326 10.01161 37.61583 0 0 -5.690402 7.272458 15.19153 1.473962
-618.5013 102.475 2703.088 -3.737252 -5.401062 -37.39942 1.136239 19.98237 -0.8073087 -0 24.92233 -0 -10.92206 -7.796211 2.101114 -1.244041 -18.39973 -8.803764 -0 12.06434 -0 -1.79604 -3.883219 18.58231 0.6642899 -3.947025 8.286488 1.44789 15.37515 -6.907959 0.7026365 19.64386 1.344374 0.1093968 -17.54768 3.305998 -1.065066 -32.43921 13.58852 87.24219 18.74533 -9.476695 -0 0 28.91736 -21.83559 15.75666 12.56547 1.823352 -22.68269 -7.603482 -94.93266 10.00754 37.60741 0 0 -5.691576 7.280598 15.19101 1.466931
-621.6404 102.7889 2709.34 -3.533641 -6.818124 -37.52349 -0.8799591 20.73237 -1.00047 -0 31.23276 -0 -11.8553 -0.3945051 3.500055 -3.56643 -15.93427 -11.6871 -0 14.53814 -0 -2.857965 -5.185093 19.53728 0.6645487 -3.944731 8.286868 1.446514 15.37799 -6.907531 0.7011371 19.64644 1.349138 0.1167761 -17.54442 3.303903 -1.061918 -32.4281 13.58962 87.24574 18.74941 -9.488637 -0 0 28.90392 -21.8321 15.74995 12.55445 1.824867 -22.69074 -7.610166 -94.93226 10.00202 37.59948 0 0 -5.692324 7.289704 15.18972 1.459458
-624.7557 103.4661 2715.477 -3.58243 -8.159314 -37.29653 -2.260126 19.76568 -1.059437 -0 38.39345 -0 -12.95334 7.070469 4.663335 -5.163534 -12.88376 -13.85075 -0 16.32557 -0 -3.361748 -6.420937 20.27694 0.6644373 -3.942393 8.287543 1.445304 15.38019 -6.907044 0.6990958 19.64873 1.354321 0.1248093 -17.54003 3.301175 -1.057537 -32.41697 13.59091 87.24759 18.75466 -9.499902 -0 0 28.89117 -21.82785 15.74268 12.54315 1.826619 -22.699 -7.616948 -94.93213 9.995497 37.59279 0 0 -5.692547 7.298968 15.18776 1.45227
-627.7311 104.4313 2721.314 -3.973399 -9.224513 -36.79722 -2.737019 16.78882 -1.218617 -0 45.54597 -0 -14.13191 12.87347 5.340913 -5.887309 -9.204158 -15.01476 -0 17.0998 -0 -3.144062 -7.566785 20.7287 0.6639628 -3.940193 8.288464 1.444354 15.38156 -6.906531 0.6966643 19.65055 1.359532 0.1328888 -17.53483 3.298017 -1.052239 -32.4067 13.59231 87.24756 18.76066 -9.50961 -0 0 28.88012 -21.82316 15.73543 12.53244 1.828479 -22.70685 -7.623309 -94.93228 9.988455 37.58788 0 0 -5.692215 7.307667 15.18525 1.445947
-630.4835 105.5607 2726.715 -4.60865 -9.903456 -36.15467 -2.416894 12.0562 -1.62486 -0 51.21665 -0 -15.19962 15.95012 5.408316 -5.90325 -5.075868 -15.26519 -0 16.86147 -0 -2.333502 -8.745636 20.83057 0.6631675 -3.938258 8.289563 1.443712 15.38206 -6.90603 0.6940098 19.65181 1.364443 0.1405055 -17.52919 3.294648 -1.046415 -32.39788 13.59371 87.24577 18.76702 -9.517237 -0 0 28.87137 -21.81832 15.72861 12.52294 1.830319 -22.71381 -7.628871 -94.93269 9.981359 37.58496 0 0 -5.691375 7.315302 15.18239 1.440812
-632.9855 106.6792 2731.624 -5.250743 -10.16727 -35.48174 -1.671309 6.24219 -2.287065 -0 53.9407 -0 -15.94292 16.17848 4.904325 -5.546833 -0.8394403 -14.93092 -0 15.80145 -0 -1.273016 -10.13293 20.54325 0.6621188 -3.936642 8.290768 1.443382 15.38175 -6.905573 0.6912894 19.65254 1.368835 0.1473097 -17.52347 3.291269 -1.040459 -32.39081 13.59503 87.24255 18.77344 -9.522645 -0 0 28.86508 -21.81357 15.72245 12.51494 1.832034 -22.7196 -7.633435 -94.93328 9.974568 37.58394 0 0 -5.690138 7.321636 15.17936 1.436915
-635.2669 107.5942 2736.07 -5.64793 -10.03405 -34.84528 -0.8931709 0.1358108 -3.149488 -0 52.9695 -0 -16.22941 14.18522 4.029059 -5.137307 3.138694 -14.3843 -0 14.20718 -0 -0.3508309 -11.84353 19.88221 0.6608948 -3.935348 8.292008 1.443331 15.38075 -6.905185 0.6886324 19.65281 1.372592 0.153117 -17.51797 3.288043 -1.034718 -32.38551 13.59623 87.23836 18.77967 -9.526001 -0 0 28.86109 -21.80903 15.71704 12.50846 1.833545 -22.72416 -7.63696 -94.93394 9.968324 37.58451 0 0 -5.688644 7.32666 15.17633 1.434103
-637.3941 108.1468 2740.14 -5.646603 -9.542618 -34.27522 -0.3256694 -5.639599 -4.132539 -0 48.57131 -0 -16.02967 10.92978 3.053311 -4.86991 6.584867 -13.90267 -0 12.39511 -0 0.1719087 -13.86002 18.93744 0.6595712 -3.934339 8.293225 1.443508 15.37925 -6.904884 0.6861346 19.65275 1.375684 0.1578731 -17.51291 3.285085 -1.029457 -32.38185 13.59727 87.23367 18.78558 -9.527642 -0 0 28.85903 -21.8048 15.71232 12.50337 1.83481 -22.72753 -7.639515 -94.93458 9.962764 37.58626 0 0 -5.687033 7.330504 15.17345 1.432125
-639.4423 108.2472 2743.949 -5.230293 -8.743795 -33.78401 -0.02369069 -10.75407 -5.124828 -0 41.81322 -0 -15.39099 7.345764 2.20578 -4.806465 9.367305 -13.6201 -0 10.65926 -0 0.2616523 -16.03293 17.86409 0.6582127 -3.933573 8.294376 1.443861 15.3774 -6.904676 0.6838605 19.65248 1.378126 0.1615998 -17.50845 3.28247 -1.024854 -32.37961 13.59813 87.22889 18.79105 -9.527932 -0 0 28.8585 -21.80093 15.70824 12.49945 1.835806 -22.72981 -7.641209 -94.93513 9.957951 37.58881 0 0 -5.68542 7.33334 15.17082 1.430732
